# xmcd CD database file
#
# Track frame offsets:
#	150
#	14612
#	28204
#
# Disc length: 1082 seconds
#
# Revision: 0
# Processed by: cddbd v1.5.1PL2 Copyright (c) Steve Scherf et al.
# Submitted via: CDex 1.51
#
DISCID=20043803
DTITLE=wirepuller - wirepuller
DYEAR=2005
DGENRE=Rock
TTITLE0=daybreak
TTITLE1=探しもの
TTITLE2=funky baby
EXTD=YEAR: 2005
EXTT0=
EXTT1=
EXTT2=
PLAYORDER=
